HIERARCHY
ROOT Hips
{
	OFFSET -0.001795 -0.223333 0.028219
	CHANNELS 6 Xposition Yposition Zposition Zrotation Yrotation Xrotation 
	JOINT LeftUpLeg
	{
		OFFSET 0.069520 -0.091406 -0.006815
		CHANNELS 3 Zrotation Yrotation Xrotation
		JOINT LeftLeg
		{
			OFFSET 0.034277 -0.375199 -0.004496
			CHANNELS 3 Zrotation Yrotation Xrotation
			JOINT LeftFoot
			{
				OFFSET -0.013596 -0.397961 -0.043693
				CHANNELS 3 Zrotation Yrotation Xrotation
				JOINT LeftToe
				{
					OFFSET 0.026358 -0.055791 0.119288
					CHANNELS 3 Zrotation Yrotation Xrotation
					End Site
					{
						OFFSET 0.000000 0.000000 0.000000
					}
				}
			}
		}
	}
	JOINT RightUpLeg
	{
		OFFSET -0.067670 -0.090522 -0.004320
		CHANNELS 3 Zrotation Yrotation Xrotation
		JOINT RightLeg
		{
			OFFSET -0.038290 -0.382569 -0.008850
			CHANNELS 3 Zrotation Yrotation Xrotation
			JOINT RightFoot
			{
				OFFSET 0.015774 -0.398415 -0.042312
				CHANNELS 3 Zrotation Yrotation Xrotation
				JOINT RightToe
				{
					OFFSET -0.025372 -0.048144 0.123348
					CHANNELS 3 Zrotation Yrotation Xrotation
					End Site
					{
						OFFSET 0.000000 0.000000 0.000000
					}
				}
			}
		}
	}
	JOINT Spine
	{
		OFFSET -0.002533 0.108963 -0.026696
		CHANNELS 3 Zrotation Yrotation Xrotation
		JOINT Spine1
		{
			OFFSET 0.005487 0.135180 0.001092
			CHANNELS 3 Zrotation Yrotation Xrotation
			JOINT Spine2
			{
				OFFSET 0.001457 0.052922 0.025425
				CHANNELS 3 Zrotation Yrotation Xrotation
				JOINT Neck
				{
					OFFSET -0.002778 0.213870 -0.042857
					CHANNELS 3 Zrotation Yrotation Xrotation
					JOINT Head
					{
						OFFSET 0.005152 0.064970 0.051349
						CHANNELS 3 Zrotation Yrotation Xrotation
						End Site
						{
							OFFSET 0.000000 0.000000 0.000000
						}
					}
				}
				JOINT LeftShoulder
				{
					OFFSET 0.078845 0.121749 -0.034090
					CHANNELS 3 Zrotation Yrotation Xrotation
					JOINT LeftArm
					{
						OFFSET 0.090977 0.030469 -0.008868
						CHANNELS 3 Zrotation Yrotation Xrotation
						JOINT LeftForeArm
						{
							OFFSET 0.259612 -0.012772 -0.027456
							CHANNELS 3 Zrotation Yrotation Xrotation
							JOINT LeftHand
							{
								OFFSET 0.249234 0.008986 -0.001171
								CHANNELS 3 Zrotation Yrotation Xrotation
								End Site
								{
									OFFSET 0.000000 0.000000 0.000000
								}
							}
						}
					}
				}
				JOINT RightShoulder
				{
					OFFSET -0.081759 0.118833 -0.038615
					CHANNELS 3 Zrotation Yrotation Xrotation
					JOINT RightArm
					{
						OFFSET -0.096012 0.032551 -0.009143
						CHANNELS 3 Zrotation Yrotation Xrotation
						JOINT RightForeArm
						{
							OFFSET -0.253742 -0.013329 -0.021401
							CHANNELS 3 Zrotation Yrotation Xrotation
							JOINT RightHand
							{
								OFFSET -0.255298 0.007772 -0.005559
								CHANNELS 3 Zrotation Yrotation Xrotation
								End Site
								{
									OFFSET 0.000000 0.000000 0.000000
								}
							}
						}
					}
				}
			}
		}
	}
}
MOTION
Frames: 6
Frame Time: 0.050000
-0.278658 0.954257 0.880537 -3.406752 -3.058616 2.940057 7.609326 -0.386532 -14.541742 -3.538637 0.461824 14.561484 6.966335 15.356232 10.033157 0.000000 0.000000 0.000000 3.745082 0.275310 -3.054786 0.285176 0.203919 5.760956 -4.800373 -12.380574 2.001476 0.000000 0.000000 0.000000 9.235663 -1.028363 7.286852 -5.844646 1.923187 -25.397614 1.423687 18.878567 29.657776 9.301849 1.080811 -44.735956 0.000000 0.000000 0.000000 -1.274794 -13.097824 3.858343 -74.745140 -18.094227 -3.597133 8.156820 -27.125460 -1.190137 0.000000 0.000000 0.000000 13.896765 -0.780661 1.795054 82.752857 19.078435 8.319566 -25.022672 33.718315 -2.518853 0.000000 0.000000 0.000000 
-0.269342 0.950476 0.896577 -3.668378 -2.945141 3.223537 7.048614 -0.458558 -14.402194 -3.381685 0.417918 14.448834 7.083329 15.601977 10.648766 0.000000 0.000000 0.000000 3.501897 0.185146 -2.372741 0.438569 0.221189 6.758463 -5.170151 -12.898301 0.536401 0.000000 0.000000 0.000000 8.785564 -0.902642 6.410220 -5.841355 1.939240 -24.623010 1.946063 18.643161 29.470244 8.607221 1.292814 -44.101673 0.000000 0.000000 0.000000 -1.971117 -13.820417 4.025070 -73.596242 -20.222715 -1.873034 9.091974 -25.185810 -1.318433 0.000000 0.000000 0.000000 14.236687 -0.329926 2.069268 82.918969 18.750944 8.004596 -25.483505 33.930882 -2.648422 0.000000 0.000000 0.000000 
-0.259427 0.949537 0.911194 -4.005068 -2.611780 3.585670 6.681613 -0.515675 -14.423900 -3.545583 0.449292 14.891935 6.855618 15.193399 9.754434 0.000000 0.000000 0.000000 3.451972 0.162116 -2.197297 0.139986 0.317560 7.921389 -5.840247 -14.539060 0.844761 0.000000 0.000000 0.000000 8.420001 -0.817717 5.774024 -5.502495 1.874219 -23.919346 1.854421 18.951233 28.879878 8.934172 1.223256 -43.880814 0.000000 0.000000 0.000000 -2.364045 -14.173250 4.056827 -72.000587 -22.864808 -0.048387 10.657462 -23.977548 -1.657188 0.000000 0.000000 0.000000 14.877587 -0.030484 2.404561 82.821935 17.282566 6.803385 -25.179064 35.406221 -2.729456 0.000000 0.000000 0.000000 
-0.248848 0.950128 0.924728 -3.954262 -2.409948 4.275211 5.824275 -0.621143 -14.213606 -3.579680 0.452611 15.067175 6.808047 15.107276 9.419557 0.000000 0.000000 0.000000 2.606818 0.239981 -2.753361 0.204658 0.348156 8.916707 -6.106158 -15.156367 0.760673 0.000000 0.000000 0.000000 7.710309 -0.665208 4.629184 -5.348228 1.839819 -23.806351 2.051197 19.235972 28.988125 8.167221 1.541987 -43.281714 0.000000 0.000000 0.000000 -1.833874 -14.435437 4.176347 -71.832110 -25.470479 1.523273 10.777800 -23.022224 -1.625235 0.000000 0.000000 0.000000 14.986071 -0.103157 2.442810 83.980985 15.860018 6.110826 -24.801897 36.581311 -2.741376 0.000000 0.000000 0.000000 
-0.237830 0.951375 0.937174 -3.946938 -1.708866 4.843572 5.481537 -0.663814 -13.710897 -3.244453 0.341208 13.717032 6.364480 14.419797 9.360407 0.000000 0.000000 0.000000 1.743971 0.318111 -3.326818 0.750270 0.276563 9.843079 -6.420892 -15.988953 1.228378 0.000000 0.000000 0.000000 7.179394 -0.601282 4.155172 -5.405326 1.855973 -23.977063 2.240913 18.995650 29.182126 8.135408 1.568905 -43.059132 0.000000 0.000000 0.000000 -1.357953 -14.109493 4.110236 -72.001468 -27.145398 2.499015 10.563277 -23.314917 -1.604231 0.000000 0.000000 0.000000 14.787149 -0.166725 2.425021 84.851725 14.641916 5.471178 -23.732030 37.810175 -2.562765 0.000000 0.000000 0.000000 
-0.226468 0.952769 0.948401 -3.873705 -0.558532 5.690272 4.771501 -0.786465 -14.071510 -2.650495 0.169186 13.198679 6.010439 13.856517 8.830617 0.000000 0.000000 0.000000 0.941888 0.490800 -4.827248 1.150171 0.271395 12.642986 -6.885820 -17.132455 1.371744 0.000000 0.000000 0.000000 6.567049 -0.471172 2.974250 -5.265654 1.847478 -23.323459 2.223936 18.825636 28.959408 7.637804 1.785700 -42.044259 0.000000 0.000000 0.000000 -0.779491 -14.017504 4.117314 -72.312772 -28.416855 3.147639 9.433591 -23.680373 -1.408571 0.000000 0.000000 0.000000 15.363659 -0.175262 2.619054 84.924507 14.248688 5.209843 -24.296713 37.857543 -2.665012 0.000000 0.000000 0.000000 
